<svg width="24" height="24" viewBox="0 0 24 24" fill="none" xmlns="http://www.w3.org/2000/svg">
<g id="24 / arrows / chevrons-left">
<path id="icon" fill-rule="evenodd" clip-rule="evenodd" d="M11.2929 18.7071L12.7071 17.2929L7.41421 12L12.7071 6.70711L11.2929 5.29289L4.58578 12L11.2929 18.7071ZM17.7071 17.2929L12.4142 12L17.7071 6.70711L16.2929 5.29289L9.58578 12L16.2929 18.7071L17.7071 17.2929Z" fill="#A7A9BE"/>
<path d="M0 0V-1H-1V0H0ZM24 0H25V-1H24V0ZM24 24V25H25V24H24ZM0 24H-1V25H0V24ZM0 1H24V-1H0V1ZM23 0V24H25V0H23ZM24 23H0V25H24V23ZM1 24V0H-1V24H1Z" fill="#0F0E17"/>
</g>
</svg>
