<svg width="24" height="24" viewBox="0 0 24 24" fill="none" xmlns="http://www.w3.org/2000/svg">
<g id="24 / arrows / chevrons-right">
<path id="icon" fill-rule="evenodd" clip-rule="evenodd" d="M7.70711 5.29289L6.29289 6.70711L11.5858 12L6.29289 17.2929L7.70711 18.7071L14.4142 12L7.70711 5.29289ZM12.7071 5.29289L11.2929 6.70711L16.5858 12L11.2929 17.2929L12.7071 18.7071L19.4142 12L12.7071 5.29289Z" fill="#A7A9BE"/>
<path d="M0 0V-1H-1V0H0ZM24 0H25V-1H24V0ZM24 24V25H25V24H24ZM0 24H-1V25H0V24ZM0 1H24V-1H0V1ZM23 0V24H25V0H23ZM24 23H0V25H24V23ZM1 24V0H-1V24H1Z" fill="#0F0E17"/>
</g>
</svg>
