<svg width="200" height="240" viewBox="0 0 200 240" fill="none" xmlns="http://www.w3.org/2000/svg">
<rect width="200" height="240" fill="#A7A9BE"/>
<path fill-rule="evenodd" clip-rule="evenodd" d="M88 43H112C113.657 43 115 44.3431 115 46V70C115 71.6569 113.657 73 112 73H88C86.3431 73 85 71.6569 85 70V46C85 44.3431 86.3431 43 88 43ZM88 46V63.3787L94 57.3787L99.25 62.6287L109 52.8787L112 55.8787V46H88ZM88 70V67.6214L94 61.6213L102.379 70H88ZM112 70H106.621L101.371 64.75L109 57.1213L112 60.1213V70ZM103 51.9999C103 49.5147 100.985 47.4999 98.5 47.4999C96.0147 47.4999 94 49.5147 94 51.9999C94 54.4852 96.0147 56.4999 98.5 56.4999C100.985 56.4999 103 54.4852 103 51.9999ZM97 52C97 51.1716 97.6716 50.5 98.5 50.5C99.3284 50.5 100 51.1716 100 52C100 52.8284 99.3284 53.5 98.5 53.5C97.6716 53.5 97 52.8284 97 52Z" fill="#0F0E17"/>
<path d="M60.6195 124.2H63.3915V134H60.6195V124.2ZM75.1217 126.286C76.055 126.286 76.797 126.566 77.3477 127.126C77.9077 127.686 78.1877 128.531 78.1877 129.66V134H75.5277V130.094C75.5277 129.562 75.425 129.17 75.2197 128.918C75.0237 128.666 74.7437 128.54 74.3797 128.54C73.9784 128.54 73.6564 128.68 73.4137 128.96C73.171 129.24 73.0497 129.665 73.0497 130.234V134H70.3897V130.094C70.3897 129.058 70.007 128.54 69.2417 128.54C68.831 128.54 68.5044 128.68 68.2617 128.96C68.019 129.24 67.8977 129.665 67.8977 130.234V134H65.2377V126.412H67.7717V127.21C68.0517 126.902 68.383 126.673 68.7657 126.524C69.1577 126.365 69.5824 126.286 70.0397 126.286C70.5717 126.286 71.0477 126.384 71.4677 126.58C71.8877 126.776 72.2284 127.075 72.4897 127.476C72.7884 127.093 73.1664 126.799 73.6237 126.594C74.081 126.389 74.5804 126.286 75.1217 126.286ZM83.1006 126.286C84.3606 126.286 85.3219 126.575 85.9846 127.154C86.6473 127.723 86.9786 128.601 86.9786 129.786V134H84.5006V133.02C84.1179 133.757 83.3713 134.126 82.2606 134.126C81.6726 134.126 81.1639 134.023 80.7346 133.818C80.3053 133.613 79.9786 133.337 79.7546 132.992C79.5399 132.637 79.4326 132.236 79.4326 131.788C79.4326 131.069 79.7079 130.514 80.2586 130.122C80.8093 129.721 81.6586 129.52 82.8066 129.52H84.3186C84.2719 128.717 83.7353 128.316 82.7086 128.316C82.3446 128.316 81.9759 128.377 81.6026 128.498C81.2293 128.61 80.9119 128.769 80.6506 128.974L79.7546 127.168C80.1746 126.888 80.6833 126.673 81.2806 126.524C81.8873 126.365 82.4939 126.286 83.1006 126.286ZM83.0026 132.446C83.3106 132.446 83.5813 132.371 83.8146 132.222C84.0479 132.073 84.2159 131.853 84.3186 131.564V130.906H83.1706C82.3959 130.906 82.0086 131.163 82.0086 131.676C82.0086 131.909 82.0973 132.096 82.2746 132.236C82.4519 132.376 82.6946 132.446 83.0026 132.446ZM96.929 126.412V132.614C96.929 134.023 96.5463 135.078 95.781 135.778C95.0157 136.487 93.9143 136.842 92.477 136.842C91.7303 136.842 91.0303 136.758 90.377 136.59C89.7237 136.422 89.1683 136.175 88.711 135.848L89.677 133.986C89.985 134.238 90.3723 134.434 90.839 134.574C91.315 134.723 91.7817 134.798 92.239 134.798C92.939 134.798 93.4523 134.644 93.779 134.336C94.1057 134.028 94.269 133.571 94.269 132.964V132.712C93.7557 133.309 93.0043 133.608 92.015 133.608C91.343 133.608 90.7223 133.459 90.153 133.16C89.5837 132.852 89.131 132.423 88.795 131.872C88.459 131.312 88.291 130.668 88.291 129.94C88.291 129.221 88.459 128.587 88.795 128.036C89.131 127.476 89.5837 127.047 90.153 126.748C90.7223 126.44 91.343 126.286 92.015 126.286C93.0977 126.286 93.891 126.636 94.395 127.336V126.412H96.929ZM92.645 131.494C93.121 131.494 93.513 131.349 93.821 131.06C94.1383 130.771 94.297 130.397 94.297 129.94C94.297 129.483 94.143 129.114 93.835 128.834C93.527 128.545 93.1303 128.4 92.645 128.4C92.1597 128.4 91.7583 128.545 91.441 128.834C91.133 129.114 90.979 129.483 90.979 129.94C90.979 130.397 91.1377 130.771 91.455 131.06C91.7723 131.349 92.169 131.494 92.645 131.494ZM106.394 130.22C106.394 130.239 106.38 130.458 106.352 130.878H100.836C100.948 131.27 101.163 131.573 101.48 131.788C101.807 131.993 102.213 132.096 102.698 132.096C103.062 132.096 103.375 132.045 103.636 131.942C103.907 131.839 104.177 131.671 104.448 131.438L105.848 132.894C105.111 133.715 104.033 134.126 102.614 134.126C101.727 134.126 100.948 133.958 100.276 133.622C99.6041 133.286 99.0814 132.819 98.7081 132.222C98.3441 131.625 98.1621 130.948 98.1621 130.192C98.1621 129.445 98.3394 128.778 98.6941 128.19C99.0581 127.593 99.5574 127.126 100.192 126.79C100.827 126.454 101.541 126.286 102.334 126.286C103.09 126.286 103.776 126.445 104.392 126.762C105.008 127.07 105.493 127.523 105.848 128.12C106.212 128.708 106.394 129.408 106.394 130.22ZM102.348 128.176C101.937 128.176 101.592 128.293 101.312 128.526C101.041 128.759 100.869 129.077 100.794 129.478H103.902C103.827 129.077 103.65 128.759 103.37 128.526C103.099 128.293 102.759 128.176 102.348 128.176ZM112.563 126.286C113.505 126.286 114.261 126.566 114.831 127.126C115.409 127.686 115.699 128.531 115.699 129.66V134H113.039V130.094C113.039 129.058 112.623 128.54 111.793 128.54C111.335 128.54 110.967 128.689 110.687 128.988C110.416 129.287 110.281 129.735 110.281 130.332V134H107.621V126.412H110.155V127.238C110.453 126.93 110.808 126.697 111.219 126.538C111.629 126.37 112.077 126.286 112.563 126.286ZM126.385 126.286C127.327 126.286 128.083 126.566 128.653 127.126C129.231 127.686 129.521 128.531 129.521 129.66V134H126.861V130.094C126.861 129.058 126.445 128.54 125.615 128.54C125.157 128.54 124.789 128.689 124.509 128.988C124.238 129.287 124.103 129.735 124.103 130.332V134H121.443V126.412H123.977V127.238C124.275 126.93 124.63 126.697 125.041 126.538C125.451 126.37 125.899 126.286 126.385 126.286ZM135.108 134.126C134.296 134.126 133.564 133.958 132.91 133.622C132.257 133.286 131.744 132.819 131.37 132.222C131.006 131.625 130.824 130.948 130.824 130.192C130.824 129.445 131.006 128.773 131.37 128.176C131.744 127.579 132.252 127.117 132.896 126.79C133.55 126.454 134.287 126.286 135.108 126.286C135.93 126.286 136.667 126.454 137.32 126.79C137.974 127.117 138.482 127.579 138.846 128.176C139.21 128.764 139.392 129.436 139.392 130.192C139.392 130.948 139.21 131.625 138.846 132.222C138.482 132.819 137.974 133.286 137.32 133.622C136.667 133.958 135.93 134.126 135.108 134.126ZM135.108 132.012C135.575 132.012 135.958 131.853 136.256 131.536C136.555 131.209 136.704 130.761 136.704 130.192C136.704 129.632 136.555 129.193 136.256 128.876C135.958 128.559 135.575 128.4 135.108 128.4C134.642 128.4 134.259 128.559 133.96 128.876C133.662 129.193 133.512 129.632 133.512 130.192C133.512 130.761 133.662 131.209 133.96 131.536C134.259 131.853 134.642 132.012 135.108 132.012ZM69.5624 140.612V151H67.0284V150.244C66.5338 150.832 65.7918 151.126 64.8024 151.126C64.1118 151.126 63.4818 150.967 62.9124 150.65C62.3431 150.323 61.8904 149.861 61.5544 149.264C61.2278 148.667 61.0644 147.976 61.0644 147.192C61.0644 146.408 61.2278 145.722 61.5544 145.134C61.8904 144.537 62.3431 144.079 62.9124 143.762C63.4818 143.445 64.1118 143.286 64.8024 143.286C65.7078 143.286 66.4078 143.547 66.9024 144.07V140.612H69.5624ZM65.3624 149.012C65.8198 149.012 66.1978 148.853 66.4964 148.536C66.7951 148.209 66.9444 147.761 66.9444 147.192C66.9444 146.632 66.7951 146.193 66.4964 145.876C66.2071 145.559 65.8291 145.4 65.3624 145.4C64.8958 145.4 64.5131 145.559 64.2144 145.876C63.9158 146.193 63.7664 146.632 63.7664 147.192C63.7664 147.761 63.9158 148.209 64.2144 148.536C64.5131 148.853 64.8958 149.012 65.3624 149.012ZM71.2738 143.412H73.9338V151H71.2738V143.412ZM72.6038 142.572C72.1185 142.572 71.7265 142.437 71.4278 142.166C71.1292 141.895 70.9798 141.559 70.9798 141.158C70.9798 140.757 71.1292 140.421 71.4278 140.15C71.7265 139.879 72.1185 139.744 72.6038 139.744C73.0892 139.744 73.4812 139.875 73.7798 140.136C74.0785 140.388 74.2278 140.715 74.2278 141.116C74.2278 141.536 74.0785 141.886 73.7798 142.166C73.4812 142.437 73.0892 142.572 72.6038 142.572ZM78.4205 151.126C77.7858 151.126 77.1605 151.056 76.5445 150.916C75.9285 150.767 75.4338 150.575 75.0605 150.342L75.8585 148.522C76.2038 148.737 76.6145 148.909 77.0905 149.04C77.5665 149.161 78.0378 149.222 78.5045 149.222C78.9338 149.222 79.2372 149.18 79.4145 149.096C79.6012 149.003 79.6945 148.872 79.6945 148.704C79.6945 148.536 79.5825 148.419 79.3585 148.354C79.1438 148.279 78.7985 148.209 78.3225 148.144C77.7158 148.069 77.1978 147.971 76.7685 147.85C76.3485 147.729 75.9845 147.505 75.6765 147.178C75.3685 146.851 75.2145 146.394 75.2145 145.806C75.2145 145.321 75.3592 144.891 75.6485 144.518C75.9378 144.135 76.3578 143.837 76.9085 143.622C77.4685 143.398 78.1358 143.286 78.9105 143.286C79.4612 143.286 80.0072 143.342 80.5485 143.454C81.0898 143.566 81.5425 143.725 81.9065 143.93L81.1085 145.736C80.4365 145.363 79.7085 145.176 78.9245 145.176C78.5045 145.176 78.1965 145.227 78.0005 145.33C77.8045 145.423 77.7065 145.549 77.7065 145.708C77.7065 145.885 77.8138 146.011 78.0285 146.086C78.2432 146.151 78.5978 146.221 79.0925 146.296C79.7178 146.389 80.2358 146.497 80.6465 146.618C81.0572 146.739 81.4118 146.963 81.7105 147.29C82.0185 147.607 82.1725 148.055 82.1725 148.634C82.1725 149.11 82.0278 149.539 81.7385 149.922C81.4492 150.295 81.0198 150.589 80.4505 150.804C79.8905 151.019 79.2138 151.126 78.4205 151.126ZM88.0927 143.286C88.7834 143.286 89.4087 143.449 89.9687 143.776C90.5381 144.093 90.9861 144.551 91.3127 145.148C91.6487 145.736 91.8167 146.422 91.8167 147.206C91.8167 147.99 91.6487 148.681 91.3127 149.278C90.9861 149.866 90.5381 150.323 89.9687 150.65C89.4087 150.967 88.7834 151.126 88.0927 151.126C87.2061 151.126 86.5014 150.86 85.9787 150.328V153.716H83.3187V143.412H85.8527V144.168C86.3474 143.58 87.0941 143.286 88.0927 143.286ZM87.5327 149.012C87.9994 149.012 88.3821 148.853 88.6807 148.536C88.9794 148.209 89.1287 147.766 89.1287 147.206C89.1287 146.646 88.9794 146.207 88.6807 145.89C88.3821 145.563 87.9994 145.4 87.5327 145.4C87.0661 145.4 86.6834 145.563 86.3847 145.89C86.0861 146.207 85.9367 146.646 85.9367 147.206C85.9367 147.766 86.0861 148.209 86.3847 148.536C86.6834 148.853 87.0661 149.012 87.5327 149.012ZM96.8611 151.126C96.0491 151.126 95.3165 150.958 94.6631 150.622C94.0098 150.286 93.4965 149.819 93.1231 149.222C92.7591 148.625 92.5771 147.948 92.5771 147.192C92.5771 146.445 92.7591 145.773 93.1231 145.176C93.4965 144.579 94.0051 144.117 94.6491 143.79C95.3025 143.454 96.0398 143.286 96.8611 143.286C97.6825 143.286 98.4198 143.454 99.0731 143.79C99.7265 144.117 100.235 144.579 100.599 145.176C100.963 145.764 101.145 146.436 101.145 147.192C101.145 147.948 100.963 148.625 100.599 149.222C100.235 149.819 99.7265 150.286 99.0731 150.622C98.4198 150.958 97.6825 151.126 96.8611 151.126ZM96.8611 149.012C97.3278 149.012 97.7105 148.853 98.0091 148.536C98.3078 148.209 98.4571 147.761 98.4571 147.192C98.4571 146.632 98.3078 146.193 98.0091 145.876C97.7105 145.559 97.3278 145.4 96.8611 145.4C96.3945 145.4 96.0118 145.559 95.7131 145.876C95.4145 146.193 95.2651 146.632 95.2651 147.192C95.2651 147.761 95.4145 148.209 95.7131 148.536C96.0118 148.853 96.3945 149.012 96.8611 149.012ZM107.319 143.286C108.262 143.286 109.018 143.566 109.587 144.126C110.166 144.686 110.455 145.531 110.455 146.66V151H107.795V147.094C107.795 146.058 107.38 145.54 106.549 145.54C106.092 145.54 105.723 145.689 105.443 145.988C105.173 146.287 105.037 146.735 105.037 147.332V151H102.377V143.412H104.911V144.238C105.21 143.93 105.565 143.697 105.975 143.538C106.386 143.37 106.834 143.286 107.319 143.286ZM112.125 143.412H114.785V151H112.125V143.412ZM113.455 142.572C112.97 142.572 112.578 142.437 112.279 142.166C111.981 141.895 111.831 141.559 111.831 141.158C111.831 140.757 111.981 140.421 112.279 140.15C112.578 139.879 112.97 139.744 113.455 139.744C113.941 139.744 114.333 139.875 114.631 140.136C114.93 140.388 115.079 140.715 115.079 141.116C115.079 141.536 114.93 141.886 114.631 142.166C114.333 142.437 113.941 142.572 113.455 142.572ZM121.288 143.286C121.979 143.286 122.604 143.445 123.164 143.762C123.733 144.079 124.181 144.537 124.508 145.134C124.844 145.722 125.012 146.408 125.012 147.192C125.012 147.976 124.844 148.667 124.508 149.264C124.181 149.861 123.733 150.323 123.164 150.65C122.604 150.967 121.979 151.126 121.288 151.126C120.289 151.126 119.543 150.832 119.048 150.244V151H116.514V140.612H119.174V144.07C119.687 143.547 120.392 143.286 121.288 143.286ZM120.728 149.012C121.195 149.012 121.577 148.853 121.876 148.536C122.175 148.209 122.324 147.761 122.324 147.192C122.324 146.632 122.175 146.193 121.876 145.876C121.577 145.559 121.195 145.4 120.728 145.4C120.261 145.4 119.879 145.559 119.58 145.876C119.281 146.193 119.132 146.632 119.132 147.192C119.132 147.761 119.281 148.209 119.58 148.536C119.879 148.853 120.261 149.012 120.728 149.012ZM126.248 140.612H128.908V151H126.248V140.612ZM138.393 147.22C138.393 147.239 138.379 147.458 138.351 147.878H132.835C132.947 148.27 133.162 148.573 133.479 148.788C133.806 148.993 134.212 149.096 134.697 149.096C135.061 149.096 135.374 149.045 135.635 148.942C135.906 148.839 136.176 148.671 136.447 148.438L137.847 149.894C137.11 150.715 136.032 151.126 134.613 151.126C133.726 151.126 132.947 150.958 132.275 150.622C131.603 150.286 131.08 149.819 130.707 149.222C130.343 148.625 130.161 147.948 130.161 147.192C130.161 146.445 130.338 145.778 130.693 145.19C131.057 144.593 131.556 144.126 132.191 143.79C132.826 143.454 133.54 143.286 134.333 143.286C135.089 143.286 135.775 143.445 136.391 143.762C137.007 144.07 137.492 144.523 137.847 145.12C138.211 145.708 138.393 146.408 138.393 147.22ZM134.347 145.176C133.936 145.176 133.591 145.293 133.311 145.526C133.04 145.759 132.868 146.077 132.793 146.478H135.901C135.826 146.077 135.649 145.759 135.369 145.526C135.098 145.293 134.758 145.176 134.347 145.176Z" fill="#0F0E17"/>
</svg>
