<svg width="24" height="24" viewBox="0 0 24 24" fill="none" xmlns="http://www.w3.org/2000/svg">
<path d="M10.1714 17.6571C10.1714 18.6351 9.66228 20.2286 8.45714 20.2286C7.252 20.2286 6.74286 18.6351 6.74286 17.6571C6.74286 16.6791 7.252 15.0857 8.45714 15.0857C9.66228 15.0857 10.1714 16.6791 10.1714 17.6571ZM18.7429 17.6571C18.7429 18.6351 18.2337 20.2286 17.0286 20.2286C15.8234 20.2286 15.3143 18.6351 15.3143 17.6571C15.3143 16.6791 15.8234 15.0857 17.0286 15.0857C18.2337 15.0857 18.7429 16.6791 18.7429 17.6571ZM20.8857 17.6571C20.8857 15.6077 19.6403 13.8 17.4571 13.8C16.5734 13.8 15.7291 13.9603 14.8454 14.0811C14.1494 14.1883 13.4526 14.2286 12.7429 14.2286C12.0331 14.2286 11.3363 14.1883 10.6403 14.0811C9.76943 13.9603 8.91228 13.8 8.02857 13.8C5.84543 13.8 4.6 15.6077 4.6 17.6571C4.6 21.7551 8.35 22.3851 11.6183 22.3851H13.8683C17.1366 22.3851 20.8866 21.756 20.8866 17.6571H20.8857ZM23.8857 15.3C23.8857 16.7863 23.7383 18.3668 23.0689 19.7331C21.3006 23.3091 16.4397 23.6571 12.9571 23.6571C9.42143 23.6571 4.26486 23.3494 2.43057 19.7331C1.74743 18.3806 1.6 16.7871 1.6 15.3C1.6 13.3448 2.13571 11.496 3.42143 9.99599C3.18057 9.2597 3.05971 8.48227 3.05971 7.71942C3.05971 6.71485 3.28771 5.71027 3.74286 4.79999C5.85914 4.79999 7.21171 5.72399 8.81886 6.98313C10.1714 6.6617 11.5643 6.51427 12.9571 6.51427C14.2163 6.51427 15.4883 6.64799 16.7071 6.94284C18.3006 5.69742 19.6531 4.79999 21.7429 4.79999C22.198 5.71027 22.426 6.71485 22.426 7.71942C22.426 8.48313 22.3051 9.24599 22.0643 9.96942C23.35 11.4831 23.8857 13.3448 23.8857 15.3Z" fill="#FF8906"/>
</svg>
