<svg width="24" height="24" viewBox="0 0 24 24" fill="none" xmlns="http://www.w3.org/2000/svg">
<g clip-path="url(#clip0)">
<path d="M12 2.16049C15.2063 2.16049 15.5857 2.17474 16.8465 2.23099C18.0187 2.28274 18.651 2.47924 19.0732 2.64349C19.6312 2.85949 20.034 3.12199 20.451 3.53899C20.8732 3.96124 21.1305 4.35949 21.351 4.91749C21.5153 5.33974 21.7117 5.97649 21.7635 7.14424C21.8197 8.41024 21.834 8.78974 21.834 11.9915C21.834 15.1932 21.8197 15.5772 21.7635 16.8387C21.7117 18.011 21.5153 18.6432 21.351 19.0655C21.135 19.6235 20.8733 20.0262 20.4555 20.4432C20.0333 20.8655 19.635 21.1227 19.0778 21.3432C18.6555 21.5075 18.018 21.704 16.851 21.7557C15.585 21.812 15.2055 21.8262 12.0037 21.8262C8.802 21.8262 8.418 21.812 7.1565 21.7557C5.98425 21.704 5.352 21.5075 4.92975 21.3432C4.37175 21.1272 3.969 20.8655 3.55125 20.4477C3.129 20.0255 2.87175 19.6272 2.65125 19.07C2.487 18.6477 2.2905 18.0102 2.23875 16.8432C2.1825 15.5772 2.16825 15.1977 2.16825 11.996C2.16825 8.79424 2.1825 8.41024 2.23875 7.14874C2.2905 5.97649 2.487 5.34424 2.65125 4.92199C2.86725 4.36399 3.12975 3.96124 3.54675 3.54349C3.969 3.12124 4.36725 2.86399 4.92525 2.64349C5.3475 2.47924 5.98425 2.28274 7.152 2.23099C8.41275 2.17474 8.793 2.16049 11.9992 2.16049H12ZM12 -0.00025708C8.742 -0.00025708 8.33475 0.0139929 7.0545 0.0702429C5.7795 0.126493 4.90275 0.332743 4.14375 0.628243C3.35175 0.937243 2.68125 1.34524 2.016 2.01574C1.3455 2.68174 0.9375 3.35149 0.6285 4.13899C0.333 4.90324 0.12675 5.77474 0.0705 7.04974C0.01425 8.33449 0 8.74174 0 11.9997C0 15.2577 0.01425 15.665 0.0705 16.9452C0.12675 18.2202 0.333 19.097 0.6285 19.856C0.93825 20.648 1.3455 21.3185 2.016 21.9837C2.68125 22.649 3.35175 23.0622 4.13925 23.3667C4.9035 23.6622 5.775 23.8685 7.05 23.9247C8.3295 23.981 8.7375 23.9952 11.9955 23.9952C15.2535 23.9952 15.6615 23.981 16.941 23.9247C18.216 23.8685 19.0927 23.6622 19.8517 23.3667C20.6392 23.0622 21.3097 22.6497 21.975 21.9837C22.6402 21.3177 23.0535 20.648 23.358 19.8605C23.6535 19.0962 23.8598 18.2247 23.916 16.9497C23.9723 15.6702 23.9865 15.2622 23.9865 12.0042C23.9865 8.74624 23.9723 8.33899 23.916 7.05874C23.8598 5.78374 23.6535 4.90699 23.358 4.14799C23.0625 3.35074 22.6545 2.68099 21.9847 2.01499C21.3195 1.34974 20.649 0.936493 19.8615 0.631993C19.0973 0.336493 18.2257 0.130243 16.9507 0.0739929C15.6667 0.0132429 15.2587 -0.00100708 12.0007 -0.00100708L12 -0.00025708Z" fill="#FF8906"/>
<path d="M12 5.83575C8.59725 5.83575 5.83575 8.5965 5.83575 12C5.83575 15.4035 8.5965 18.1643 12 18.1643C15.4035 18.1643 18.1643 15.4035 18.1643 12C18.1643 8.59725 15.4035 5.83575 12 5.83575V5.83575ZM12 15.9983C9.792 15.9983 8.00175 14.208 8.00175 12C8.00175 9.792 9.792 8.00175 12 8.00175C14.208 8.00175 15.9983 9.792 15.9983 12C15.9983 14.208 14.208 15.9983 12 15.9983Z" fill="#FF8906"/>
<path d="M19.8465 5.59199C19.8465 6.38699 19.2023 7.03124 18.4073 7.03124C17.6123 7.03124 16.968 6.38699 16.968 5.59199C16.968 4.79699 17.6123 4.15274 18.4073 4.15274C19.2023 4.15274 19.8465 4.79699 19.8465 5.59199V5.59199Z" fill="#FF8906"/>
</g>
<defs>
<clipPath id="clip0">
<rect width="24" height="24" fill="white"/>
</clipPath>
</defs>
</svg>
