<svg width="48" height="48" viewBox="0 0 48 70" fill="none" xmlns="http://www.w3.org/2000/svg">
<g filter="url(#filter0_d)">
<path d="M29.5 27C27.7 27 26.05 27.45 24.55 28.5H17.95C16.45 27.45 14.8 27 13 27C8.05 27 4 31.05 4 36C4 40.95 8.05 45 13 45C14.8 45 16.45 44.55 17.95 43.5H24.55C26.05 44.55 27.7 45 29.5 45C34.45 45 38.5 40.95 38.5 36C38.5 31.05 34.45 27 29.5 27ZM16 37.5H14.5V39C14.5 39.9 13.9 40.5 13 40.5C12.1 40.5 11.5 39.9 11.5 39V37.5H10C9.1 37.5 8.5 36.9 8.5 36C8.5 35.1 9.1 34.5 10 34.5H11.5V33C11.5 32.1 12.1 31.5 13 31.5C13.9 31.5 14.5 32.1 14.5 33V34.5H16C16.9 34.5 17.5 35.1 17.5 36C17.5 36.9 16.9 37.5 16 37.5ZM29.35 38.1C29.2 38.25 29.2 38.4 29.05 38.55C28.9 38.7 28.75 38.85 28.6 38.85C28.45 38.85 28.15 39 28 39C27.85 39 27.55 39 27.4 38.85C27.25 38.85 27.1 38.7 26.95 38.55C26.65 38.25 26.5 37.95 26.5 37.5C26.5 37.35 26.5 37.05 26.65 36.9C26.8 36.75 26.8 36.6 26.95 36.45C27.4 36 28 35.85 28.6 36.15C28.75 36.15 28.9 36.3 29.05 36.45C29.35 36.75 29.5 37.2 29.5 37.5C29.5 37.65 29.5 37.95 29.35 38.1ZM32.35 35.1C32.2 35.25 32.2 35.4 32.05 35.55C31.75 35.85 31.45 36 31 36C30.85 36 30.55 36 30.4 35.85C30.25 35.85 30.1 35.7 29.95 35.55C29.8 35.4 29.65 35.25 29.65 35.1C29.65 34.95 29.5 34.65 29.5 34.5C29.5 34.05 29.65 33.75 29.95 33.45C30.1 33.3 30.25 33.15 30.4 33.15C30.7 33 31 33 31.3 33C31.45 33 31.45 33 31.6 33.15C31.75 33.15 31.75 33.15 31.9 33.3L32.05 33.45C32.35 33.75 32.5 34.2 32.5 34.5C32.5 34.65 32.5 34.95 32.35 35.1Z" fill="#FF8906"/>
<path d="M47.5 3H43C42.7 3 42.4 3.15 42.1 3.3L35.65 8.4C34.6 9.3 34 10.5 34 12V24.9C38.35 26.7 41.5 31.05 41.5 36C41.5 38.4 40.75 40.65 39.55 42.6L42.1 44.7C42.4 44.85 42.7 45 43 45H47.5C50.05 45 52 43.05 52 40.5V7.5C52 4.95 50.05 3 47.5 3ZM47.35 38.1C47.2 38.25 47.2 38.4 47.05 38.55C46.75 38.85 46.45 39 46 39C45.85 39 45.55 39 45.4 38.85C45.25 38.85 45.1 38.7 44.95 38.55C44.65 38.25 44.5 37.95 44.5 37.5C44.5 37.35 44.5 37.05 44.65 36.9C44.8 36.75 44.8 36.6 44.95 36.45C45.4 36 46 35.85 46.6 36.15C46.75 36.15 46.9 36.3 47.05 36.45C47.35 36.75 47.5 37.2 47.5 37.5C47.5 37.65 47.5 37.95 47.35 38.1ZM47.5 22.5C47.5 23.4 46.9 24 46 24C45.1 24 44.5 23.4 44.5 22.5V9C44.5 8.1 45.1 7.5 46 7.5C46.9 7.5 47.5 8.1 47.5 9V22.5Z" fill="#FF8906"/>
</g>
<defs>
<filter id="filter0_d" x="0" y="0" width="56" height="56" filterUnits="userSpaceOnUse" color-interpolation-filters="sRGB">
<feFlood flood-opacity="0" result="BackgroundImageFix"/>
<feColorMatrix in="SourceAlpha" type="matrix" values="0 0 0 0 0 0 0 0 0 0 0 0 0 0 0 0 0 0 127 0"/>
<feOffset dy="4"/>
<feGaussianBlur stdDeviation="2"/>
<feColorMatrix type="matrix" values="0 0 0 0 0 0 0 0 0 0 0 0 0 0 0 0 0 0 0.25 0"/>
<feBlend mode="normal" in2="BackgroundImageFix" result="effect1_dropShadow"/>
<feBlend mode="normal" in="SourceGraphic" in2="effect1_dropShadow" result="shape"/>
</filter>
</defs>
</svg>
